<svg xmlns="http://www.w3.org/2000/svg" width="256" height="256" viewBox="0 0 100 100"><rect width="100" height="100" rx="50" fill="#fa7c68"></rect><path fill="#fff" d="M60.66 62.02L60.66 62.02Q62.02 62.02 62.02 65.07L62.02 65.07Q62.02 71.47 56.07 77.45Q50.13 83.44 41.59 83.52L41.59 83.52Q35.55 83.52 27.63 78.75L27.63 78.75Q21.96 84.78 13.50 84.78L13.50 84.78Q7.92 84.78 5.31 81.99Q2.70 79.20 2.70 74.61Q2.70 70.02 6.08 67.73Q9.45 65.44 14.67 65.44L14.67 65.44Q17.46 65.44 19.89 65.70L19.89 65.70Q19.89 54.72 22.32 44.28L22.32 44.28Q19.36 42.75 17.24 40.86Q15.12 38.97 15.12 37.89L15.12 37.89Q15.12 35.02 16.38 35.02L16.38 35.02Q18.18 35.02 20.12 36.05Q22.05 37.08 24.30 37.63L24.30 37.63Q29.88 21.52 39.60 16.83L39.60 16.83Q43.02 15.22 46.80 15.22L46.80 15.22Q61.02 15.22 61.02 27.18L61.02 27.18Q61.02 34.02 55.89 38.97L55.89 38.97Q48.78 45.81 34.30 46.17L34.30 46.17Q33.30 53.73 33.30 64.08L33.30 64.08Q33.30 66.60 32.67 69.75L32.67 69.75Q35.82 71.38 38.80 72.72Q41.77 74.07 46.09 74.07L46.09 74.07Q48.34 74.07 50.54 72.19Q52.74 70.30 54.68 68.05Q56.61 65.79 58.14 63.91Q59.67 62.02 60.66 62.02ZM46.63 24.03L46.63 24.03Q39.06 24.03 35.64 38.43L35.64 38.43Q42.13 37.89 46.58 34.79Q51.03 31.68 51.03 28.53L51.03 28.53Q51.03 24.03 46.63 24.03ZM11.43 75.24L11.43 75.24Q11.52 77.77 14.94 77.77Q18.36 77.77 19.27 73.80L19.27 73.80Q16.74 72.55 15.12 72.55L15.12 72.55Q11.52 72.55 11.43 75.24ZM77.86 83.52L77.86 83.52Q64.98 83.61 60.30 73.89L60.30 73.89Q58.69 70.47 58.69 65.30Q58.69 60.13 59.59 54.27L59.59 54.27Q61.38 42.57 66.52 32.67L66.52 32.67Q69.13 27.63 72.37 24.03L72.37 24.03Q79.47 16.11 88.20 16.20L88.20 16.20Q92.08 16.20 94.28 18.32Q96.48 20.43 96.48 24.39Q96.48 28.35 94.14 32.36Q91.81 36.36 88.16 40.64Q84.52 44.91 80.11 49.59Q75.69 54.27 71.47 59.77L71.47 59.77L71.47 63.36Q71.47 68.41 73.63 70.74Q75.78 73.08 78.66 73.08L78.66 73.08Q86.41 73.08 92.34 65.44L92.34 65.44Q94.78 62.28 96.03 62.28L96.03 62.28Q97.30 62.28 97.30 65.34Q97.30 68.41 95.63 71.60Q93.97 74.80 91.27 77.45Q88.56 80.10 85.06 81.81Q81.55 83.52 77.86 83.52ZM82.72 35.20Q84.61 32.85 85.69 30.96Q86.77 29.07 86.77 27.05Q86.77 25.02 85.33 25.02L85.33 25.02Q82.17 25.02 78.35 31.50Q74.53 37.98 72.64 48.51L72.64 48.51Q75.69 43.83 78.26 40.68Q80.83 37.53 82.72 35.20Z"></path></svg>